<svg xmlns="http://www.w3.org/2000/svg" viewBox="0 0 200.39 210.49">
  <path fill="#9333EA" d="M200.39,142.2c-6.18-13.33-16.84-26.1-31.54-30.22-9.01-2.62-18.31-2.22-27.51-.75,2.18-5.55,4.83-12.33,6.66-16.94l13.4.69c3.69.02,7.39-.91,10.63-2.7,10.48-5.49,14.55-19.75,8.53-29.94-2.06-4.08-7.79-5.44-11.51-2.78-11.05,6.47-19.94,16.47-25.2,28.14l-15.99-.83c9.55-29.69,20.47-45.32,54.44-49.92-14.63-1.31-31.02,1.53-41.94,12.21-6.78,6.49-11.08,14.74-14.4,23.45-3.72-4.66-8.26-10.34-11.34-14.23l7.3-11.26c1.87-3.19,2.9-6.86,2.98-10.55.49-11.82-9.83-22.48-21.66-22.35-4.56-.25-8.6,4.03-8.17,8.58.08,12.8,4.29,25.51,11.77,35.89l-8.71,13.43C77.18,48.99,69.1,31.73,82.1,0c-8.45,12.02-14.18,27.63-10.4,42.43,2.23,9.12,7.23,16.97,13.1,24.2-5.9.89-13.09,1.99-18,2.7l-6.1-11.95c-1.83-3.21-4.49-5.94-7.65-7.85-9.99-6.33-24.38-2.73-30.19,7.59-2.5,3.82-.82,9.46,3.35,11.36,11.13,6.33,24.24,9.04,36.97,7.75l7.27,14.26c-30.49,6.57-49.48,4.94-70.46-22.18,6.18,13.33,16.84,26.1,31.54,30.22,9.01,2.62,18.31,2.22,27.51.75-2.17,5.55-4.83,12.33-6.66,16.93l-13.4-.69c-3.69-.02-7.39.91-10.63,2.7-10.48,5.49-14.55,19.75-8.53,29.94,2.06,4.08,7.79,5.44,11.51,2.78,11.05-6.47,19.94-16.47,25.2-28.14l15.99.83c-9.55,29.69-20.47,45.32-54.44,49.92,14.63,1.31,31.02-1.53,41.94-12.21,6.78-6.49,11.08-14.74,14.4-23.45,3.72,4.66,8.27,10.34,11.34,14.24l-7.3,11.26c-1.87,3.19-2.9,6.86-2.98,10.55-.49,11.82,9.83,22.48,21.66,22.35,4.56.25,8.6-4.03,8.17-8.58-.08-12.8-4.29-25.51-11.77-35.89l8.71-13.43c20.94,23.12,29.01,40.38,16.02,72.11,8.45-12.02,14.18-27.63,10.4-42.43-2.23-9.12-7.23-16.97-13.1-24.2,5.9-.89,13.09-1.99,18-2.7l6.1,11.95c1.83,3.21,4.49,5.94,7.65,7.85,9.99,6.33,24.38,2.73,30.19-7.59,2.5-3.82.82-9.47-3.35-11.36-11.13-6.33-24.24-9.04-36.97-7.75l-7.27-14.26c30.49-6.57,49.48-4.94,70.46,22.18Z"/>
</svg>
